<?xml version="1.0" encoding="UTF-8"?>
<svg id="Layer_1" data-name="Layer 1" xmlns="http://www.w3.org/2000/svg" viewBox="0 0 491.4 491.4">
  <defs>
    <style>
      .cls-1 {
        fill: #ffffff;
        stroke: #231f20;
        stroke-miterlimit: 10;
      }
    </style>
  </defs>
  <path class="cls-1" d="M452.33,.5H39.07C17.77,.5,.5,17.77,.5,39.07V452.33c0,21.3,17.27,38.57,38.57,38.57H452.33c21.3,0,38.57-17.27,38.57-38.57V39.07c0-21.3-17.27-38.57-38.57-38.57Zm-177.08,439.69c-131.71,19.18-243.22-92.34-224.04-224.04C63.61,130.98,130.98,63.61,216.15,51.21c131.71-19.18,243.22,92.34,224.04,224.04-12.4,85.17-79.77,152.54-164.94,164.94ZM430.27,92.54c-19.85,1.25-36.22-15.11-34.96-34.96,1.03-16.37,14.32-29.66,30.69-30.69,19.85-1.25,36.22,15.11,34.96,34.96-1.03,16.37-14.32,29.66-30.69,30.69Z"/>
  <circle class="cls-1" cx="245.7" cy="245.7" r="115.25"/>
</svg>