<?xml version="1.0" encoding="UTF-8"?>
<svg id="Layer_1" data-name="Layer 1" xmlns="http://www.w3.org/2000/svg" viewBox="0 0 169.5 174.15">
  <style>
    .cls-1 {
      fill: #ffffff
    }
  </style>
  <path class="cls-1" d="M28.12,14.19c.26,7.74-5.42,13.93-14.45,13.93C5.68,28.12,0,21.93,0,14.19S5.93,0,14.19,0s13.93,6.19,13.93,14.19ZM2.84,174.15V49.28H25.54v124.87H2.84Z"/>
  <path class="cls-1" d="M63.21,83.07c0-12.9-.26-23.48-1.03-33.8h20.12l1.29,20.64h.52c6.19-11.87,20.64-23.48,41.28-23.48,17.29,0,44.12,10.32,44.12,53.15v74.56h-22.7V102.17c0-20.12-7.48-36.89-28.89-36.89-14.96,0-26.57,10.58-30.44,23.22-1.03,2.84-1.55,6.71-1.55,10.58v75.08h-22.7V83.07Z"/>
</svg>