<?xml version="1.0" encoding="utf-8"?>
<!-- Svg Vector Icons : http://www.onlinewebfonts.com/icon -->
<!DOCTYPE svg PUBLIC "-//W3C//DTD SVG 1.1//EN" "http://www.w3.org/Graphics/SVG/1.1/DTD/svg11.dtd">
<svg version="1.1" xmlns="http://www.w3.org/2000/svg" xmlns:xlink="http://www.w3.org/1999/xlink" x="0px" y="0px" viewBox="0 0 1000 1000" enable-background="new 0 0 1000 1000" xml:space="preserve">
<metadata> Svg Vector Icons : http://www.onlinewebfonts.com/icon </metadata>
<g><g transform="translate(0.000000,511.000000) scale(0.100000,-0.100000)"><path d="M6953.1,3930.6c-436.8-596.3-799.7-1088.6-806.7-1097.9c-6.9-9.2-57.8-4.6-110.9,11.6c-94.7,25.4-187.2,13.9-309.7-39.3c-25.4-11.6-187.2,145.6-596.3,575.5c-330.5,346.7-577.8,589.4-600.9,589.4c-55.5,0-99.4-55.5-90.1-113.3c4.6-25.4,256.5-307.4,561.6-628.7c436.8-462.3,552.4-596.3,547.8-637.9l-6.9-53.2h392.9h392.9l-23.1,69.3c-20.8,57.8-16.2,80.9,27.7,143.3c30.1,41.6,392.9,533.9,804.4,1093.3c411.4,559.3,753.5,1035.5,760.4,1058.6c13.9,53.2-34.7,108.6-97.1,108.6C7757.4,5010,7581.8,4785.8,6953.1,3930.6z"/><path d="M1380.5,2238.7c-117.9-23.1-240.4-106.3-302.8-205.7l-53.2-85.5l-6.9-2299.8c-6.9-2554-13.9-2422.3,145.6-2563.3c43.9-37,117.9-80.9,166.4-92.5c122.5-34.7,7218.3-34.7,7340.8,0c48.6,11.6,122.5,55.5,166.4,92.5c159.5,141,152.5,9.3,145.6,2565.6l-6.9,2299.8l-64.7,97.1c-34.7,53.2-106.3,120.2-161.8,147.9l-97.1,53.2l-3594.1,2.3C3081.6,2252.6,1426.7,2248,1380.5,2238.7z M6426.1,1767.2c161.8-78.6,302.8-233.4,358.3-392.9c39.3-110.9,41.6-240.4,41.6-1784.3v-1664.2l-55.5-122.5c-69.3-154.9-263.5-335.1-413.7-383.7c-99.4-34.7-335.1-37-2225.8-32.4l-2112.5,6.9l-124.8,69.3c-154.9,85.5-265.8,212.6-325.9,376.7c-46.2,122.5-46.2,164.1-41.6,1805.2l6.9,1678l53.2,108.6c94.8,189.5,279.7,342.1,478.4,390.6c39.3,9.2,1005.4,13.9,2149.5,13.9l2080.2-4.6L6426.1,1767.2z M8120.3,1596.2c150.2-50.8,314.3-215,365.2-365.2c108.6-316.7-23.1-642.5-319-785.8c-110.9-55.5-147.9-62.4-293.5-53.2c-194.1,9.2-312,60.1-429.9,175.7c-233.4,235.8-242.7,610.2-20.8,852.9C7604.9,1621.6,7861.4,1684,8120.3,1596.2z M8571-178.9v-358.3h-670.3h-670.3v358.3v358.3h670.3H8571V-178.9z M8566.4-1593.4l-6.9-827.5l-663.3-6.9l-665.7-4.6v832.1v832.1h670.3H8571L8566.4-1593.4z"/><path d="M7796.7,1210.2c-168.7-74-161.8-335.1,9.3-406.8c143.3-57.8,302.8,46.2,302.8,196.5c0,113.3-34.7,171-127.1,210.3C7886.9,1249.5,7884.5,1249.5,7796.7,1210.2z"/><path d="M7392.2-178.9V-306h138.7h138.7v127.1v127.1h-138.7h-138.7V-178.9z"/><path d="M7762-178.9V-306h127.1h127.1v127.1v127.1h-127.1H7762V-178.9z"/><path d="M8108.7-178.9V-306h138.7h138.7v127.1v127.1h-138.7h-138.7V-178.9z"/><path d="M2714.1-3361.6c-13.9-57.8-175.7-1361.4-175.7-1403c0-16.2,83.2-25.4,251.9-25.4H3040l362.9,730.4c198.8,402.2,360.6,735,360.6,739.6c0,4.6-233.4,9.3-520,9.3h-520L2714.1-3361.6z"/><path d="M6490.8-3320c0-4.6,161.8-337.4,360.6-739.6l362.9-730.4h249.6c217.3,0,251.9,4.6,251.9,37c0,48.6-159.5,1322.1-175.7,1391.4l-9.2,50.9h-520C6724.2-3310.8,6490.8-3315.4,6490.8-3320z"/></g></g>
</svg>